<?xml version="1.0" encoding="UTF-8" standalone="no"?>
<!DOCTYPE svg PUBLIC "-//W3C//DTD SVG 1.1//EN" "http://www.w3.org/Graphics/SVG/1.1/DTD/svg11.dtd">
<svg width="100%" height="100%" viewBox="0 0 1020 181" version="1.1" xmlns="http://www.w3.org/2000/svg" xmlns:xlink="http://www.w3.org/1999/xlink" xml:space="preserve" xmlns:serif="http://www.serif.com/" style="fill-rule:evenodd;clip-rule:evenodd;strokeLinejoin:round;stroke-miterlimit:2;">
    <g transform="matrix(1,0,0,1,-63,-334)">
        <path d="M676.5,349.5C699.307,352.401 717.307,363.234 730.5,382C722.575,387.877 714.409,393.377 706,398.5C687.806,377.243 666.306,373.076 641.5,386C622.621,400.341 616.788,418.841 624,441.5C628.597,453.596 636.764,462.262 648.5,467.5C651.505,469.277 654.838,470.277 658.5,470.5C672.584,473.205 685.251,470.038 696.5,461C699.733,457.767 702.9,454.6 706,451.5C714.156,456.985 722.323,462.485 730.5,468C707.835,497.112 678.502,507.112 642.5,498C614.035,486.53 596.869,465.697 591,435.5C588.539,396.907 604.706,369.407 639.5,353C642.72,351.648 646.053,350.814 649.5,350.5C658.482,349.782 667.482,349.448 676.5,349.5Z" style="fill:rgb(240,126,94);"/>
    </g>
    <g transform="matrix(1,0,0,1,-63,-334)">
        <path d="M163.5,443.5C160.189,443.883 157.189,444.883 154.5,446.5C146.584,448.018 138.584,448.685 130.5,448.5L130.5,419.5C139.546,420.646 147.879,418.812 155.5,414C162.502,405.476 163.335,396.309 158,386.5C154.394,382.447 149.894,380.114 144.5,379.5C135.014,378.506 125.348,378.173 115.5,378.5C114.501,418.663 114.168,458.997 114.5,499.5L85.5,499.5L85.5,349.5C106.169,349.333 126.836,349.5 147.5,350C169.903,352.423 184.403,364.256 191,385.5C195.487,405.749 190.32,422.916 175.5,437C171.825,439.86 167.825,442.027 163.5,443.5Z" style="fill:rgb(241,126,94);"/>
    </g>
    <g transform="matrix(1,0,0,1,-63,-334)">
        <path d="M287.5,471.5C309.66,472.497 331.994,472.831 354.5,472.5L354.5,499.5L257.5,499.5C257.333,452.832 257.5,406.165 258,359.5C267.674,355.998 277.507,352.998 287.5,350.5L287.5,471.5Z" style="fill:rgb(242,126,94);"/>
    </g>
    <g transform="matrix(1,0,0,1,-63,-334)">
        <path d="M543.5,498.5C533.219,500.476 522.552,501.143 511.5,500.5C507.709,488.624 503.709,476.957 499.5,465.5C498.733,461.851 497.4,458.518 495.5,455.5C488.829,437.986 482.662,420.319 477,402.5C476.252,400.668 475.252,399.001 474,397.5C465.079,418.43 457.245,439.763 450.5,461.5C449.596,462.209 449.263,463.209 449.5,464.5C444.582,475.919 440.248,487.586 436.5,499.5C426.145,499.832 415.812,499.499 405.5,498.5C406.309,496.929 406.643,495.262 406.5,493.5C424.715,445.515 442.715,397.515 460.5,349.5L487.5,349.5C506.2,399.282 524.867,448.949 543.5,498.5Z" style="fill:rgb(240,126,94);"/>
    </g>
    <g transform="matrix(1,0,0,1,-63,-334)">
        <path d="M913.5,497.5C903.554,499.475 893.221,500.142 882.5,499.5C882.672,498.508 882.338,497.842 881.5,497.5C869.166,464.166 856.833,430.832 844.5,397.5C841.667,404.161 838.834,410.827 836,417.5C826.762,444.299 817.262,470.966 807.5,497.5C806.662,497.842 806.328,498.508 806.5,499.5C795.986,499.828 785.653,499.494 775.5,498.5C794.252,449.317 812.752,399.984 831,350.5C840,349.167 849,349.167 858,350.5C876.443,399.525 894.943,448.525 913.5,497.5Z" style="fill:rgb(240,126,94);"/>
    </g>
    <g transform="matrix(1,0,0,1,-63,-334)">
        <path d="M1022.5,434.5C1021.5,455.994 1021.17,477.66 1021.5,499.5L992.5,499.5C992.831,477.327 992.497,455.327 991.5,433.5C974.133,406.117 957.133,378.45 940.5,350.5C952.167,349.167 963.833,349.167 975.5,350.5C985.499,367.835 995.999,384.835 1007,401.5C1017.64,384.384 1028.14,367.217 1038.5,350C1050.18,349.167 1061.85,349.334 1073.5,350.5C1056.45,378.535 1039.45,406.535 1022.5,434.5Z" style="fill:rgb(240,126,94);"/>
    </g>
    <g transform="matrix(1,0,0,1,-63,-334)">
        <path d="M450.5,464.5C466.167,463.167 481.833,463.167 497.5,464.5C489.608,475.93 481.942,487.597 474.5,499.5C466.475,487.815 458.475,476.149 450.5,464.5Z" style="fill:rgb(241,228,212);"/>
    </g>
    <g transform="matrix(1,0,0,1,-63,-334)">
        <path d="M821.5,463.5C836.848,463.167 852.181,463.501 867.5,464.5C860.069,476.375 852.402,488.041 844.5,499.5C836.313,487.782 828.646,475.782 821.5,463.5Z" style="fill:rgb(241,229,212);"/>
    </g>
</svg>
